<?xml version="1.0" encoding="UTF-8"?>
<svg version="1.1" xmlns="http://www.w3.org/2000/svg" width="512" height="512">
<path d="M0 0 C17.89866276 14.47529002 28.86235249 34.47111816 32.77441406 57.01586914 C33.18262949 61.63009063 33.25231195 66.19800221 33.21191406 70.82836914 C33.2005542 72.6664917 33.2005542 72.6664917 33.18896484 74.54174805 C33.01809588 83.96448566 31.9993204 92.1423691 28.77441406 101.01586914 C28.33871094 102.21985352 27.90300781 103.42383789 27.45410156 104.66430664 C18.96494343 126.04956293 2.48612806 143.91949831 -18.22558594 154.01586914 C-25.34958413 156.94714903 -32.64694681 159.58532028 -40.22558594 161.01586914 C-40.22778578 162.45401206 -40.22778578 162.45401206 -40.23003006 163.92120838 C-40.26666282 187.2750274 -40.32616195 210.62870342 -40.40948868 233.98240376 C-40.44925864 245.2761947 -40.48166155 256.56991616 -40.49658203 267.86376953 C-40.50960909 277.71015945 -40.53660081 287.55639638 -40.580199 297.40270013 C-40.60278995 302.61384684 -40.61849803 307.824805 -40.61746979 313.03600502 C-40.61672179 317.94691584 -40.63472895 322.85741024 -40.66675377 327.76821327 C-40.67523098 329.5648 -40.67701759 331.36143355 -40.67138863 333.15803146 C-40.63384168 346.99075652 -41.80035782 357.4773578 -51.86621094 367.85571289 C-61.68339251 376.84396026 -71.8961391 378.46564935 -84.8825531 378.39682007 C-86.25675596 378.40028135 -87.63095605 378.40504906 -89.00515038 378.4110018 C-92.76231054 378.42347716 -96.51924086 378.41735732 -100.27640164 378.40804315 C-104.33579287 378.40123865 -108.39514535 378.41174086 -112.45452881 378.41998291 C-120.39962788 378.43330788 -128.34464182 378.43044791 -136.28974419 378.42174499 C-142.74873795 378.41496351 -149.20770788 378.41405373 -155.66670418 378.41731644 C-157.04683716 378.41800599 -157.04683716 378.41800599 -158.45485162 378.41870946 C-160.3241415 378.41966866 -162.19343139 378.42064131 -164.06272126 378.42162724 C-181.5827006 378.43017764 -199.10263282 378.42035274 -216.62260444 378.40422614 C-231.64596888 378.39082551 -246.66926377 378.39314963 -261.69262695 378.40698242 C-279.14934959 378.42304827 -296.60603094 378.42935134 -314.06275994 378.42014563 C-315.92539059 378.41919001 -317.78802126 378.4182469 -319.65065193 378.41731644 C-320.56703864 378.41685361 -321.48342535 378.41639078 -322.42758135 378.41591393 C-328.87610781 378.41332689 -335.32460802 378.41768892 -341.77313042 378.4247551 C-349.63569744 378.43318156 -357.49817464 378.43086598 -365.36073142 378.41491286 C-369.37008563 378.40704521 -373.37929026 378.40391273 -377.38864326 378.41386032 C-381.06323495 378.42283922 -384.73753925 378.41782222 -388.41210509 378.40192766 C-390.36176528 378.39702107 -392.31144562 378.40674779 -394.2610845 378.41709936 C-406.16414793 378.33780268 -415.1133293 375.86691379 -424.22558594 368.01586914 C-434.01165517 357.89379753 -435.38233896 345.45177083 -435.35929871 332.01652527 C-435.36156426 331.03739853 -435.36382982 330.05827179 -435.36616403 329.04947454 C-435.37247142 325.7832964 -435.37167676 322.5171601 -435.37084961 319.25097656 C-435.37384312 316.90314175 -435.3772461 314.55530743 -435.38102722 312.20747375 C-435.38985154 305.83964076 -435.39220467 299.47182121 -435.39284301 293.10398269 C-435.39367382 288.4546396 -435.39657474 283.8052995 -435.39967949 279.15595746 C-435.40797812 266.64644859 -435.4117225 254.13694682 -435.41100975 241.62743529 C-435.4109698 240.91796953 -435.41092984 240.20850378 -435.41088867 239.47753906 C-435.41084779 238.76720094 -435.41080691 238.05686283 -435.41076479 237.32499931 C-435.41035844 225.81604144 -435.41992696 214.30711631 -435.43402704 202.79816791 C-435.44841138 190.96323932 -435.4552961 179.12832668 -435.45443326 167.29338914 C-435.45410202 160.65604675 -435.45701342 154.01873453 -435.46761131 147.38139915 C-435.47730897 141.13759385 -435.47735998 134.89386092 -435.47009468 128.65005302 C-435.46905094 126.36322168 -435.47139917 124.07638579 -435.47745514 121.78956223 C-435.48520782 118.65834512 -435.48050858 115.52737596 -435.4728241 112.39616394 C-435.47796766 111.49983456 -435.48311122 110.60350519 -435.48841065 109.68001431 C-435.42155391 97.27945105 -433.17308814 86.01870485 -424.53808594 76.70336914 C-412.03665566 65.11496467 -396.42563006 65.72232831 -380.43261719 65.82055664 C-378.6323004 65.82429388 -376.83198155 65.82713749 -375.03166199 65.82913208 C-370.3283003 65.83671257 -365.62506515 65.8563121 -360.92175293 65.87854004 C-356.10833446 65.89911978 -351.29489524 65.90815956 -346.48144531 65.91821289 C-337.0627704 65.93956407 -327.64418875 65.97363132 -318.22558594 66.01586914 C-318.16690338 65.27038818 -318.10822083 64.52490723 -318.04776001 63.75683594 C-317.96545135 62.77368408 -317.8831427 61.79053223 -317.79833984 60.77758789 C-317.71903229 59.80523193 -317.63972473 58.83287598 -317.55801392 57.83105469 C-317.10293979 53.97723314 -316.03450317 50.60365434 -314.60058594 47.01586914 C-314.33479736 46.33508301 -314.06900879 45.65429688 -313.79516602 44.95288086 C-306.39729724 26.70466104 -291.07307785 10.38063325 -273.22558594 2.01586914 C-252.4315233 -6.17867579 -229.32317704 -8.86336568 -208.17578125 -0.13842773 C-187.40500963 8.96630324 -171.4302411 23.27123 -162.35058594 44.20336914 C-159.62559876 51.25627712 -156.96600487 58.37872099 -157.22558594 66.01586914 C-154.58558594 66.01586914 -151.94558594 66.01586914 -149.22558594 66.01586914 C-149.09603516 64.67008789 -149.09603516 64.67008789 -148.96386719 63.29711914 C-146.62385844 42.51612403 -139.42358213 24.5984217 -125.22558594 9.01586914 C-124.28972656 7.95819336 -124.28972656 7.95819336 -123.33496094 6.87915039 C-91.05483469 -27.63888377 -36.13913313 -28.17600353 0 0 Z M-275.43261719 48.61352539 C-279.48184355 54.03895941 -281.90137463 59.3948126 -283.22558594 66.01586914 C-253.52558594 66.01586914 -223.82558594 66.01586914 -193.22558594 66.01586914 C-194.71292176 55.60451836 -199.84596027 46.56507557 -208.22558594 40.01586914 C-231.37504132 24.23384948 -257.02083884 27.11474229 -275.43261719 48.61352539 Z " fill="#020101" transform="translate(467.2255859375,76.984130859375)"/>
<path d="M0 0 C1.34135853 -0.00298657 1.34135853 -0.00298657 2.7098152 -0.00603348 C4.18499514 -0.00166422 4.18499514 -0.00166422 5.68997669 0.00279331 C6.73384582 0.00193889 7.77771495 0.00108446 8.85321647 0.00020415 C12.36789694 -0.00144929 15.88253019 0.00406853 19.39720631 0.00952244 C21.90993213 0.00980436 24.42265803 0.00964647 26.9353838 0.00907993 C32.35378786 0.00885186 37.77217659 0.01169713 43.19057751 0.01731777 C51.02470812 0.02543903 58.85883291 0.02804864 66.69296727 0.02930576 C79.40281457 0.03149529 92.11265546 0.03815271 104.82249928 0.04760838 C117.1701552 0.05678504 129.51780938 0.06386463 141.86546803 0.06811619 C142.62636373 0.06837891 143.38725943 0.06864164 144.17121258 0.06891232 C147.98833883 0.07021734 151.8054651 0.07148105 155.62259138 0.07272422 C187.29787462 0.08309376 218.97314982 0.10078365 250.64842701 0.12304783 C250.84396168 1.27700047 251.03949635 2.4309531 251.24095631 3.619874 C251.50550264 5.1561198 251.77024275 6.69233224 252.03514576 8.22851658 C252.16304493 8.98644505 252.2909441 9.74437351 252.422719 10.52526951 C255.15056919 26.25177131 261.80700645 39.62754338 271.64842701 52.12304783 C272.17952076 52.82043064 272.71061451 53.51781345 273.25780201 54.23632908 C287.14577422 71.39003732 309.94392156 81.70663694 331.53392506 84.17236423 C335.2359283 84.54501896 338.93751768 84.85279682 342.64842701 85.12304783 C334.85143333 97.02286208 324.21107548 102.55172759 311.77342701 108.87304783 C310.56207384 109.49422254 309.35105921 110.11605783 308.14037037 110.73852634 C305.73790208 111.97351199 303.33445444 113.20655253 300.93016529 114.43798923 C296.67764915 116.62150853 292.43998642 118.83199358 288.21092701 121.06054783 C287.47704762 121.44726658 286.74316822 121.83398533 285.98705006 122.23242283 C279.60838811 125.60223086 273.24651024 129.00344233 266.88686085 132.40896702 C265.08733564 133.37229376 263.28719939 134.33447199 261.48705006 135.29663181 C255.53989556 138.47879432 249.60994654 141.68733036 243.70702076 144.95117283 C206.24142373 165.59221764 206.24142373 165.59221764 190.64842701 165.12304783 C190.50147388 163.92808689 190.50147388 163.92808689 190.35155201 162.70898533 C189.21241672 154.20995052 189.21241672 154.20995052 184.64842701 147.12304783 C179.52928271 143.68434491 176.25563739 142.61802868 169.95702076 142.62695408 C169.24868595 142.62549885 168.54035114 142.62404362 167.81055164 142.62254429 C166.32393213 142.62419321 164.83729374 142.63564081 163.35081959 142.65649509 C161.08795026 142.68552188 158.82741949 142.67707048 156.56444263 142.66406345 C145.99667106 142.52575835 145.99667106 142.52575835 137.00389576 147.62304783 C133.52821506 152.0867983 132.54374312 155.25135222 132.08592701 160.81054783 C132.00213795 161.80441502 131.91834888 162.7982822 131.83202076 163.82226658 C131.77143482 164.58152439 131.71084888 165.3407822 131.64842701 166.12304783 C105.26400344 160.98805118 82.53002546 147.58954717 59.19994068 134.76464939 C51.90715881 130.77019827 44.53982514 126.93140156 37.14842701 123.12304783 C26.06393728 117.41070849 15.07981671 111.53700749 4.16649342 105.50439548 C2.36195554 104.51447157 0.5509441 103.53631304 -1.26417065 102.56591892 C-2.23402905 102.04594334 -3.20388744 101.52596775 -4.20313549 100.99023533 C-5.52305492 100.2880991 -5.52305492 100.2880991 -6.8696394 99.5717783 C-15.48914249 94.54048464 -21.19605514 87.69248725 -23.96119213 78.10205173 C-25.53569788 72.09125492 -25.8027966 66.39794138 -25.78516674 60.20898533 C-25.79302952 58.56635212 -25.79302952 58.56635212 -25.80105114 56.8905344 C-25.80743026 54.59304745 -25.80618818 52.29552765 -25.79761791 49.99804783 C-25.7890779 46.50005904 -25.81797751 43.00368969 -25.84961987 39.50586033 C-25.85123154 37.26106915 -25.850655 35.0162751 -25.84766674 32.77148533 C-25.85890072 31.73688175 -25.8701347 30.70227818 -25.8817091 29.63632298 C-25.79506302 20.53964706 -23.24015004 13.39763869 -17.06641674 6.62695408 C-12.33961927 2.481585 -6.26650022 -0.00307634 0 0 Z " fill="#C08D6A" transform="translate(68.35157299041748,153.87695217132568)"/>
<path d="M0 0 C1.13203857 -0.01023193 2.26407715 -0.02046387 3.43041992 -0.03100586 C24.15516999 0.18442187 43.88520964 9.12618532 58.625 23.56640625 C73.98452306 39.60227194 82.07775791 60.21979499 81.8503418 82.33544922 C81.00174633 105.19375908 70.9111728 125.80144753 54.375 141.4375 C35.11574553 158.01007433 14.01633415 161.81678238 -10.625 160.4375 C-29.95076735 158.34027796 -48.73988786 146.87101686 -61.27734375 132.40625 C-76.47415202 113.1889883 -81.37498262 91.55235006 -79.625 67.4375 C-77.08252549 47.69998213 -64.69914194 28.9700837 -49.39453125 16.640625 C-34.18300671 5.42429696 -18.75481822 0.13099249 0 0 Z " fill="#F8637C" transform="translate(408.625,67.5625)"/>
<path d="M0 0 C0 45.54 0 91.08 0 138 C-57.75 138 -115.5 138 -175 138 C-175 92.79 -175 47.58 -175 1 C-170.19176135 2.60274622 -165.95948957 4.44011524 -161.5 6.75 C-148.12427885 13.50378859 -135.45241343 18.23653164 -120.84082031 21.52270508 C-119 22 -119 22 -117 23 C-116.62951521 25.0288453 -116.35377826 27.07533351 -116.125 29.125 C-115.3208942 34.76611146 -114.52061203 38.50144018 -111 43 C-106.41357293 45.86145091 -102.4816057 46.44476784 -97.1875 46.3984375 C-96.0895813 46.40274277 -96.0895813 46.40274277 -94.96948242 46.40713501 C-93.42984234 46.40916647 -91.8901759 46.40370112 -90.35058594 46.39111328 C-88.00656916 46.37504503 -85.66427626 46.39099177 -83.3203125 46.41015625 C-81.81770456 46.40817365 -80.31509769 46.40432963 -78.8125 46.3984375 C-78.11858154 46.40451019 -77.42466309 46.41058289 -76.7097168 46.4168396 C-72.08342283 46.35064293 -68.93500514 45.41670077 -65 43 C-60.7734294 38.43073449 -59.89649716 34.91060517 -59.4375 28.8125 C-59.31181641 27.18248047 -59.31181641 27.18248047 -59.18359375 25.51953125 C-59.12300781 24.68808594 -59.06242187 23.85664063 -59 23 C-58.351521 22.81937012 -57.70304199 22.63874023 -57.03491211 22.45263672 C-37.63650444 17.0152433 -20.29284911 10.50104344 -2.61962891 0.82275391 C-1 0 -1 0 0 0 Z " fill="#A27251" transform="translate(317,307)"/>
<path d="M0 0 C0.33 0 0.66 0 1 0 C1.09356126 22.23599575 1.16403696 44.47195891 1.20724869 66.70811176 C1.22784852 77.03342086 1.25591975 87.35860744 1.30175781 97.68383789 C1.3417046 106.68634555 1.36745155 115.68876444 1.37635398 124.69135827 C1.38155546 129.45544088 1.39372687 134.21926963 1.42292023 138.98327065 C1.45021337 143.47386339 1.45841709 147.96409941 1.45243073 152.45476723 C1.45352478 154.09658756 1.46139555 155.73842069 1.4768219 157.38016891 C1.57357438 168.2149784 1.38910336 178.65388786 -6.4375 187 C-20.12826564 199.20517193 -33.33885838 195 -53 195 C-53 141.54 -53 88.08 -53 33 C-31 21 -31 21 -24.28515625 17.4140625 C-23.39505859 16.93839844 -22.50496094 16.46273438 -21.58789062 15.97265625 C-19.84894497 15.04468061 -18.10653796 14.12317177 -16.36132812 13.20703125 C-9.92011275 9.74565275 -4.11136729 6.16705094 0 0 Z " fill="#A27251" transform="translate(415,250)"/>
<path d="M0 0 C15.08945383 1.9901445 28.34532526 7.96717293 38.3125 19.75 C44.89000077 28.51549897 50.5464195 38.79840033 50 50 C47.69 50.66 45.38 51.32 43 52 C43 53.98 43 55.96 43 58 C45.31 58.66 47.62 59.32 50 60 C49.6665212 73.70294688 43.46181869 85.33533575 33.98828125 95.06640625 C32.05739809 96.82278916 30.08514338 98.43098122 28 100 C27.42121094 100.44859375 26.84242188 100.8971875 26.24609375 101.359375 C21.93916168 104.37329723 17.26390217 106.12755237 12.3125 107.8125 C11.34944946 108.14145264 11.34944946 108.14145264 10.36694336 108.47705078 C6.81140401 109.62203148 3.73505247 110.24995571 0 110 C-0.495 106.535 -0.495 106.535 -1 103 C-3.90073181 102.32198966 -3.90073181 102.32198966 -7 102 C-9.5654594 104.5654594 -9.54046087 106.47686668 -10 110 C-25.68337852 108.59251731 -37.6131982 101.43341084 -48 90 C-54.20003951 81.94122175 -60.20686565 70.37904462 -59 60 C-56.69 59.34 -54.38 58.68 -52 58 C-52 55.69 -52 53.38 -52 51 C-54.31 50.67 -56.62 50.34 -59 50 C-60.03602336 38.34473719 -53.2948838 26.42950175 -46.0859375 17.67578125 C-38.03681917 9.25787861 -27.18721073 2.08651145 -15.390625 0.69140625 C-13.1875 0.6875 -13.1875 0.6875 -10 1 C-9.34 2.98 -8.68 4.96 -8 7 C-4.41672247 8.00217064 -4.41672247 8.00217064 -1 7 C-0.59270772 4.67843403 -0.25561323 2.3431213 0 0 Z " fill="#F2C64B" transform="translate(414,93)"/>
<path d="M0 0 C0.47327225 0.41214249 0.94654449 0.82428497 1.43415833 1.24891663 C2.05892563 1.78947189 2.68369293 2.33002716 3.32739258 2.88696289 C3.94503983 3.42285538 4.56268707 3.95874786 5.1990509 4.51087952 C7.55582752 6.45958775 10.01662848 7.95051279 12.6875 9.4375 C13.24421387 9.74896973 13.80092773 10.06043945 14.37451172 10.38134766 C27.11860638 17.45199154 39.96430796 24.48215398 53 31 C53 84.46 53 137.92 53 193 C18 193 18 193 8 187 C2.39473545 179.7932313 -0.25401115 173.99763692 -0.24050903 164.74868774 C-0.24221788 164.04119019 -0.24392673 163.33369263 -0.24568737 162.60475576 C-0.24896804 160.24632748 -0.23800227 157.888187 -0.22705078 155.52978516 C-0.22648636 153.83434048 -0.22680383 152.13889532 -0.22793579 150.44345093 C-0.22850909 145.84886846 -0.21675838 141.25439065 -0.20278788 136.65983248 C-0.19027681 131.85520745 -0.18910972 127.05057997 -0.18673706 122.24594116 C-0.1805234 113.15129747 -0.16411411 104.05670191 -0.14403808 94.96207941 C-0.12167555 84.60664223 -0.11068476 74.25120274 -0.10064721 63.89574742 C-0.0797478 42.59713809 -0.04457401 21.29857208 0 0 Z " fill="#A47352" transform="translate(43,251)"/>
<path d="M0 0 C0.78971191 0.00749268 1.57942383 0.01498535 2.39306641 0.02270508 C17.64988537 0.30234573 30.12326686 4.82801826 42.1875 14.25 C43.21810547 15.01570313 43.21810547 15.01570313 44.26953125 15.796875 C55.85779219 25.0309133 63.82319169 39.74375988 66.1875 54.25 C68.04555593 74.0145209 64.50668753 91.160436 52.01953125 107 C39.90012253 121.01762936 23.72204685 129.09531902 5.25390625 130.5625 C1.53599372 130.623387 -2.10363079 130.50578408 -5.8125 130.25 C-7.31876953 130.16105469 -7.31876953 130.16105469 -8.85546875 130.0703125 C-21.37907881 128.68443392 -33.57418333 121.5837315 -42.8125 113.25 C-43.410625 112.74339844 -44.00875 112.23679687 -44.625 111.71484375 C-56.66409795 100.77753824 -62.94851311 84.15995795 -64.015625 68.21484375 C-64.29310578 50.29420986 -58.74225805 34.69122061 -46.8125 21.25 C-46.30460937 20.64929688 -45.79671875 20.04859375 -45.2734375 19.4296875 C-34.06693507 7.11909616 -16.52349848 -0.20810003 0 0 Z M6.1875 10.25 C5.8575 12.56 5.5275 14.87 5.1875 17.25 C2.3125 17.875 2.3125 17.875 -0.8125 18.25 C-3.17203094 15.89046906 -3.30391413 14.47104383 -3.8125 11.25 C-14.90728421 10.16227606 -24.77186343 15.41928442 -33.3203125 22.109375 C-42.45211706 29.95299396 -50.37843433 41.19383711 -52.8125 53.25 C-52.85138349 55.58300933 -52.8573635 57.91709801 -52.8125 60.25 C-50.5025 60.58 -48.1925 60.91 -45.8125 61.25 C-45.8125 63.56 -45.8125 65.87 -45.8125 68.25 C-48.1225 68.91 -50.4325 69.57 -52.8125 70.25 C-54.03910753 80.79882479 -47.84651533 91.92820635 -41.8125 100.25 C-31.8912193 112.26917265 -18.95236803 118.13688213 -3.8125 120.25 C-3.1525 117.94 -2.4925 115.63 -1.8125 113.25 C2.9375 112.125 2.9375 112.125 5.1875 113.25 C5.59479228 115.57156597 5.93188677 117.9068787 6.1875 120.25 C20.44436194 119.39458828 32.73111595 113.04136304 42.53515625 102.796875 C47.06368646 97.413426 50.39410025 91.69214284 53.1875 85.25 C53.5484375 84.43789062 53.909375 83.62578125 54.28125 82.7890625 C55.23816775 80.10804295 55.58596697 77.76916288 55.8125 74.9375 C55.92464844 73.61298828 55.92464844 73.61298828 56.0390625 72.26171875 C56.11253906 71.26591797 56.11253906 71.26591797 56.1875 70.25 C53.8775 69.59 51.5675 68.93 49.1875 68.25 C49.1875 66.27 49.1875 64.29 49.1875 62.25 C51.4975 61.59 53.8075 60.93 56.1875 60.25 C55.85109959 46.4270012 49.54742345 35.09060426 40.1875 25.25 C30.45133853 16.4248244 19.1010482 11.95316482 6.1875 10.25 Z " fill="#060302" transform="translate(407.8125,82.75)"/>
<path d="M0 0 C9.19238816 3.06412939 17.50979388 8.33038664 26 13 C26 59.86 26 106.72 26 155 C17.42 155 8.84 155 0 155 C0 103.85 0 52.7 0 0 Z " fill="#734C33" transform="translate(106,289)"/>
<path d="M0 0 C0 51.15 0 102.3 0 155 C-8.58 155 -17.16 155 -26 155 C-26 108.14 -26 61.28 -26 13 C-1 0 -1 0 0 0 Z " fill="#734C33" transform="translate(352,289)"/>
<path d="M0 0 C1.58284355 1.20285628 3.14551343 2.43269549 4.6875 3.6875 C5.51765625 4.34363281 6.3478125 4.99976562 7.203125 5.67578125 C19.63282155 16.10376286 28.21111887 30.83181045 31.6875 46.6875 C31.6875 48.0075 31.6875 49.3275 31.6875 50.6875 C26.7375 50.6875 21.7875 50.6875 16.6875 50.6875 C16.501875 49.49125 16.31625 48.295 16.125 47.0625 C12.90360799 32.93280817 4.32369904 20.90004739 -7.625 12.8125 C-21.59542547 4.5455057 -35.94089296 1.53608651 -51.9375 4.8125 C-66.56288681 8.67714766 -79.14053648 17.30820607 -87.07421875 30.3671875 C-90.56779128 36.91350322 -93.54763002 43.46757736 -95.3125 50.6875 C-99.9325 50.6875 -104.5525 50.6875 -109.3125 50.6875 C-107.76040763 34.00250701 -99.99223092 20.38765003 -88.3125 8.6875 C-87.69890625 8.06230469 -87.0853125 7.43710938 -86.453125 6.79296875 C-63.44234449 -14.9886034 -26.17312433 -17.64019351 0 0 Z " fill="#D5E0EB" transform="translate(268.3125,93.3125)"/>
<path d="M0 0 C1.22912109 0.00708984 2.45824219 0.01417969 3.72460938 0.02148438 C5.00013672 0.05435547 6.27566406 0.08722656 7.58984375 0.12109375 C8.86923828 0.12689453 10.14863281 0.13269531 11.46679688 0.13867188 C22.07830167 0.27793047 22.07830167 0.27793047 25.52734375 2.55859375 C27.72730353 6.95851331 26.75444301 12.89811796 26.76757812 17.78930664 C26.77729143 19.98427108 26.80831784 22.17830197 26.83984375 24.37304688 C26.84637323 25.76692152 26.85162392 27.16080286 26.85546875 28.5546875 C26.8694873 30.46012329 26.8694873 30.46012329 26.88378906 32.40405273 C26.52734375 35.55859375 26.52734375 35.55859375 25.44018555 37.46923828 C22.50575498 39.14038432 19.94907647 38.96617722 16.59375 38.9921875 C15.91940414 38.99742935 15.24505829 39.0026712 14.55027771 39.0080719 C13.12557348 39.01448814 11.70081624 39.01316014 10.27612305 39.00463867 C8.10043553 38.99613515 5.92738072 39.02487717 3.75195312 39.05664062 C2.3658862 39.05825302 0.97981464 39.05767437 -0.40625 39.0546875 C-2.29428345 39.05746704 -2.29428345 39.05746704 -4.22045898 39.06030273 C-7.47265625 38.55859375 -7.47265625 38.55859375 -9.87890625 36.9375 C-12.85630134 32.49329998 -12.09908516 27.33066969 -12.04907227 22.14135742 C-12.03521526 20.12966076 -12.06926841 18.12263118 -12.10742188 16.11132812 C-12.10548828 14.83708984 -12.10355469 13.56285156 -12.1015625 12.25 C-12.1022876 11.08670166 -12.1030127 9.92340332 -12.10375977 8.72485352 C-10.74377377 1.90177482 -6.53626474 -0.07842203 0 0 Z " fill="#F0C34A" transform="translate(221.47265625,305.44140625)"/>
<path d="M0 0 C2 2 2 2 2.22705078 4.70556641 C2.21657715 5.82624512 2.20610352 6.94692383 2.1953125 8.1015625 C2.18886719 9.31328125 2.18242187 10.525 2.17578125 11.7734375 C2.15902344 13.04445313 2.14226562 14.31546875 2.125 15.625 C2.11597656 16.90375 2.10695313 18.1825 2.09765625 19.5 C2.07402303 22.66685167 2.04107629 25.83333424 2 29 C2.928125 28.95875 3.85625 28.9175 4.8125 28.875 C8 29 8 29 11 31 C11.3125 34 11.3125 34 11 37 C9 39 9 39 5.375 39.125 C4.26125 39.08375 3.1475 39.0425 2 39 C2.04125 40.11375 2.0825 41.2275 2.125 42.375 C2 46 2 46 0 48 C-2.80984248 48.36023622 -4.38241919 48.38332602 -6.8125 46.875 C-8.47628516 44.24797079 -8.07854032 42.05067135 -8 39 C-9.68029297 39.05220703 -9.68029297 39.05220703 -11.39453125 39.10546875 C-12.86717251 39.13360839 -14.33982998 39.16090837 -15.8125 39.1875 C-16.55048828 39.21263672 -17.28847656 39.23777344 -18.04882812 39.26367188 C-23.49458152 39.33759613 -23.49458152 39.33759613 -26.0234375 37.6484375 C-27 36 -27 36 -26.8125 33.4375 C-26 31 -26 31 -24 29 C-21.25514407 28.85492305 -18.61519457 28.81347577 -15.875 28.875 C-15.12089844 28.88402344 -14.36679687 28.89304688 -13.58984375 28.90234375 C-11.72642746 28.9259313 -9.86317407 28.96180281 -8 29 C-8.01571045 28.22809326 -8.0314209 27.45618652 -8.04760742 26.66088867 C-8.10989607 23.16983338 -8.14897173 19.67889491 -8.1875 16.1875 C-8.21263672 14.97255859 -8.23777344 13.75761719 -8.26367188 12.50585938 C-8.27333984 11.34248047 -8.28300781 10.17910156 -8.29296875 8.98046875 C-8.3086792 7.90692139 -8.32438965 6.83337402 -8.34057617 5.72729492 C-8 3 -8 3 -6.6418457 1.14575195 C-4.33045555 -0.46723748 -2.75238116 -0.35286938 0 0 Z " fill="#060502" transform="translate(412,114)"/>
<path d="M0 0 C1.9375 1 1.9375 1 3 3 C3.23595284 5.71882023 3.13477523 8.25957022 3 11 C4.258125 10.938125 5.51625 10.87625 6.8125 10.8125 C9.37705844 10.83065617 10.71463773 10.8484013 13 12.0625 C14.58433618 15.13215135 14.36248449 17.61681143 14 21 C13 22.9375 13 22.9375 11 24 C8.28117977 24.23595284 5.74042978 24.13477523 3 24 C3.061875 25.258125 3.12375 26.51625 3.1875 27.8125 C3.16934383 30.37705844 3.1515987 31.71463773 1.9375 34 C-1.13215135 35.58433618 -3.61681143 35.36248449 -7 35 C-8.9375 34 -8.9375 34 -10 32 C-10.23595284 29.28117977 -10.13477523 26.74042978 -10 24 C-10.62648438 24.02320312 -11.25296875 24.04640625 -11.8984375 24.0703125 C-13.12433594 24.09738281 -13.12433594 24.09738281 -14.375 24.125 C-15.59316406 24.15980469 -15.59316406 24.15980469 -16.8359375 24.1953125 C-19 24 -19 24 -21 22 C-21.54794521 15.09589041 -21.54794521 15.09589041 -20 12 C-16.72032242 10.36016121 -13.62861311 10.82154362 -10 11 C-10.061875 9.741875 -10.12375 8.48375 -10.1875 7.1875 C-10.16934383 4.62294156 -10.1515987 3.28536227 -8.9375 1 C-5.86784865 -0.58433618 -3.38318857 -0.36248449 0 0 Z " fill="#6FD6F9" transform="translate(21,95)"/>
<path d="M0 0 C2.76152272 1.38076136 3.05813287 3.02183958 4.3125 5.8125 C7.73631263 12.81983663 11.96205973 15.24002343 19 18 C19 18.66 19 19.32 19 20 C18.34773438 20.268125 17.69546875 20.53625 17.0234375 20.8125 C10.61102726 23.68768099 6.37520071 26.73532856 3 33 C2.34033418 35.14989474 2.34033418 35.14989474 2 37 C1.01 37 0.02 37 -1 37 C-1.391875 35.96875 -1.78375 34.9375 -2.1875 33.875 C-5.34794827 26.66568252 -9.02724572 23.54534674 -16.20703125 20.6640625 C-16.79871094 20.44492187 -17.39039063 20.22578125 -18 20 C-17 17 -17 17 -15.07421875 16.0078125 C-14.28660156 15.71648437 -13.49898438 15.42515625 -12.6875 15.125 C-5.53006273 12.11253431 -3.1466553 6.74522387 0 0 Z " fill="#F5C94B" transform="translate(468,320)"/>
<path d="M0 0 C3 1 3 1 4.6875 4.3125 C7.02343781 8.76452265 10.45500204 10.2239207 15 12 C14 14 14 14 11.1875 15.3125 C7.71385004 17.15149116 6.24659417 18.82378065 4 22 C3.00270658 23.33535898 2.00316209 24.6690441 1 26 C0.64808594 25.38511719 0.29617188 24.77023438 -0.06640625 24.13671875 C-3.45164707 18.59482321 -5.73353153 15.87994054 -12 14 C-12 13.34 -12 12.68 -12 12 C-10.35546875 10.8515625 -10.35546875 10.8515625 -8.1875 9.625 C-3.8257467 7.00486551 -1.63097275 4.89291826 0 0 Z " fill="#87D047" transform="translate(304,32)"/>
<path d="M0 0 C1.875 0.30859375 1.875 0.30859375 3.875 1.30859375 C5.50541883 4.56943141 5.53464122 7.75097821 4.875 11.30859375 C2.68746717 14.00094185 1.29076045 14.24796202 -2.125 14.74609375 C-5.125 14.30859375 -5.125 14.30859375 -7.5 12.68359375 C-9.6003727 9.61381827 -9.65793835 7.96302814 -9.125 4.30859375 C-7.22735706 -0.19830824 -4.46860694 -0.27107358 0 0 Z " fill="#FC657D" transform="translate(507.125,256.69140625)"/>
<path d="M0 0 C2.6923481 2.18753283 2.93936827 3.58423955 3.4375 7 C3 10 3 10 1.375 12.375 C-1.69477548 14.4753727 -3.34556561 14.53293835 -7 14 C-9.375 13 -9.375 13 -11 11 C-11.65964122 7.44238446 -11.63041883 4.26083766 -10 1 C-6.73916234 -0.63041883 -3.55761554 -0.65964122 0 0 Z " fill="#F5C84C" transform="translate(85,48)"/>
</svg>
