<svg class="svg-icon" style="width: 1em; height: 1em;vertical-align: middle;fill: currentColor;overflow: hidden;" viewBox="0 0 1024 1024" version="1.1" xmlns="http://www.w3.org/2000/svg"><path d="M502.05649511 533.8953649c-138.42322225 0-251.04353518-110.17536378-251.04353499-245.58607101s112.62031268-245.58607099 251.04353499-245.58607089c138.43413442 0 251.04353518 110.16445177 251.04353511 245.58607089s-112.62031268 245.58607099-251.04353511 245.58607101z m0-436.59745646c-108.33074438 0-196.46885866 85.69316511-196.46885857 191.01138545s88.1381141 191.01138567 196.46885857 191.01138578 196.46885866-85.69316511 196.46884973-191.01138578-88.14902619-191.01138567-196.46884973-191.01138545z" fill="#1296db" /><path d="M876.16594139 981.40774969a27.28733825 27.28733825 0 1 1 0-54.57467642c24.55861071 0 33.75990108-4.25682282 37.13260665-7.81509798 3.20898767-3.37271466 3.67833563-9.96533797 3.47095083-15.14992667-22.28830103-210.97480711-198.09518121-369.97268366-409.26645177-369.97268372s-386.97815074 158.99787662-409.26645178 369.97268372c-0.2073847 5.18459767 0.27287545 11.77721197 3.47095106 15.14992667 3.38362693 3.56918713 12.57400518 7.81509774 37.12169443 7.81509798h581.61330233a27.28733825 27.28733825 0 1 1 0 54.57467642h-581.61330233c-22.81221865 0-55.57885411-2.56500939-76.69925921-24.79873174-13.3926225-14.09117921-19.57047675-32.98494124-18.38074757-56.17917477l0.10914831-1.40802577c24.84239834-239.26632306 224.16004491-419.70112882 463.63375263-419.70113774 239.47370768 0 438.79135438 180.43481479 463.63375266 419.70113774l0.12006048 1.40802577c1.18972908 23.19424242-4.99903728 42.08799562-18.39166872 56.17917477-21.09857185 22.2337222-53.86520765 24.79873173-76.688338 24.79873174z" fill="#1296db" /></svg>