<?xml version="1.0" encoding="UTF-8"?>
<svg version="1.1" xmlns="http://www.w3.org/2000/svg" width="512" height="512">
<path d="M0 0 C0.85207031 0.32742187 1.70414062 0.65484375 2.58203125 0.9921875 C17.21354844 7.30562956 27.95718567 21.10866299 33.77734375 35.49609375 C36.29892167 42.7224688 37.09358425 49.3728838 37 57 C45.08357097 57.38290748 45.08357097 57.38290748 53 56 C55.38819715 53.65081152 56.4249036 51.55772357 57.78515625 48.515625 C60.07531603 43.77330057 64.12558372 41.9154126 68.6875 39.6875 C77.64641831 37.82810186 86.07472232 38.24401854 93.8671875 43.18359375 C99.8790723 47.73766099 103.4113158 53.74494926 104.4453125 61.21875 C104.76201267 70.25526145 102.93347164 76.99496494 96.9375 83.8125 C91.77348027 88.57758258 84.87655073 91.10209637 77.875 91.4375 C69.00512427 90.43606242 63.14214286 87.54585178 57 81 C54.75360239 77.91120329 54 76.80672941 54 73 C48.39 73 42.78 73 37 73 C37 88.84 37 104.68 37 121 C45.07057711 121.01634666 53.13632393 121.02595005 61.20594788 120.97145844 C64.96423838 120.9479879 68.72164305 120.93663173 72.47998047 120.95532227 C76.10508446 120.97287102 79.72860378 120.95612352 83.35351562 120.91632271 C84.73125481 120.9070811 86.10913271 120.90986939 87.48681641 120.92530632 C96.754995 121.09074212 96.754995 121.09074212 104.59936523 116.73510742 C105.75872295 115.51407182 106.89538 114.27076863 108 113 C108.88051025 112.18837402 109.76102051 111.37674805 110.66821289 110.54052734 C113.14857132 108.16764498 115.60825413 105.77487373 118.0625 103.375 C118.94099609 102.54226562 119.81949219 101.70953125 120.72460938 100.8515625 C121.96114258 99.63726562 121.96114258 99.63726562 123.22265625 98.3984375 C123.97297119 97.67317871 124.72328613 96.94791992 125.49633789 96.20068359 C127.27363713 94.09178668 127.27363713 94.09178668 126.80639648 91.45556641 C126.40723022 90.24006104 126.40723022 90.24006104 126 89 C123.66225068 81.33737724 123.28339278 74.4000903 126.5 66.875 C129.68287785 61.15975948 134.85913994 56.29952027 140.8984375 53.80078125 C149.21921464 51.65246977 157.27044772 52.07361172 164.7734375 56.375 C170.00551947 60.19350193 174.05875717 64.76093584 176 71 C176.98802988 80.10027517 176.78591024 88.50078624 171 96 C165.3262093 101.79713397 158.34563155 104.70538091 150.3125 105.25 C147 105 147 105 144.20849609 104.1027832 C140.61210916 103.98757403 140.30182143 104.19498958 137.78369141 106.48510742 C136.62202423 107.67493885 135.47898694 108.88314164 134.3515625 110.10546875 C133.73534027 110.74108231 133.11911804 111.37669586 132.48422241 112.03157043 C130.51377963 114.0676614 128.56808877 116.12531403 126.625 118.1875 C124.68675125 120.22927325 122.74351159 122.2653912 120.78720093 124.28987122 C119.57168128 125.54916652 118.36654968 126.81860405 117.17398071 128.09965515 C110.9650123 134.56219538 106.03210958 137.1574808 96.94140625 137.45410156 C94.14756822 137.46968367 91.35598798 137.43194168 88.5625 137.390625 C87.07178511 137.38315296 85.58106031 137.37746458 84.09033203 137.37347412 C80.19061565 137.35829323 76.29150711 137.31907846 72.39202881 137.2746582 C67.70054178 137.22629606 63.00885007 137.20813541 58.31718445 137.18484497 C51.21103518 137.14622098 44.10621629 137.06951733 37 137 C37 147.23 37 157.46 37 168 C39.60406738 167.98428955 42.20813477 167.9685791 44.89111328 167.95239258 C53.50047191 167.90265576 62.10983692 167.86953462 70.71930122 167.84456348 C75.93859591 167.82891589 81.15774324 167.80769399 86.37695312 167.77368164 C91.41495078 167.74105613 96.45280679 167.72314017 101.49090195 167.71536827 C103.41181543 167.70983051 105.33272127 167.6990166 107.25357437 167.68280983 C109.94672574 167.66099321 112.63929383 167.65803485 115.33251953 167.65942383 C116.12446213 167.648638 116.91640472 167.63785217 117.73234558 167.6267395 C125.00174146 167.66723629 129.55673216 170.2615634 134.875 175.1875 C135.72835938 175.97769531 136.58171875 176.76789063 137.4609375 177.58203125 C149.78003513 189.31360269 149.78003513 189.31360269 150.375 193.875 C149.89467195 197.87773372 149.07536739 199.38593772 146 202 C142.60675017 202.66752456 141.17496191 202.93873638 138 202 C135.99309558 200.50903179 134.45247594 198.88376293 132.796875 197.01171875 C130.90866319 194.89774249 128.90235327 193.09206877 126.75 191.25 C123.07223609 188.1018341 123.07223609 188.1018341 121.88517761 186.4283905 C118.90316679 184.16893446 115.63707071 184.56088249 112.0402832 184.56762695 C111.23029877 184.5574353 110.42031433 184.54724365 109.58578491 184.53674316 C106.90738068 184.50653875 104.22933363 184.49733598 101.55078125 184.48828125 C99.69417627 184.47144006 97.83758274 184.45329058 95.98100281 184.43388367 C91.09349136 184.38631663 86.20602629 184.35655069 81.31835938 184.33044434 C75.45453085 184.29543854 69.59088049 184.23840682 63.72719574 184.18505096 C54.81815277 184.10645848 45.90934429 184.05591235 37 184 C37 197.86 37 211.72 37 226 C42.94 226 48.88 226 55 226 C55.33 224.35 55.66 222.7 56 221 C59.99544386 214.5486411 65.78001987 210.21837227 73 208 C81.18205332 206.90202123 88.27355892 207.79401331 95.125 212.44140625 C101.3631158 217.38373697 104.43697269 222.42071118 105.41015625 230.3359375 C105.74494175 238.25061003 104.86140065 244.59286274 100 251 C94.37289693 256.76166423 87.04545295 259.99188319 79 260.375 C70.20847119 259.93891226 63.95794232 256.34954417 58 250 C55.75360239 246.91120329 55 245.80672941 55 242 C49.06 242 43.12 242 37 242 C37 259.49 37 276.98 37 295 C50.58821158 295.02560882 50.58821158 295.02560882 64.17578125 294.98632812 C69.71749406 294.95590146 75.25850863 294.9330921 80.80029297 294.95532227 C85.26817169 294.97276976 89.73475563 294.95632374 94.2024765 294.91632271 C95.90729285 294.90702494 97.61222106 294.9099632 99.31699371 294.92530632 C101.7052914 294.94471527 104.08949173 294.92071185 106.47753906 294.88647461 C107.18316483 294.9022908 107.88879059 294.91810699 108.61579895 294.93440247 C110.86193368 294.946173 110.86193368 294.946173 114 294 C115.84294148 291.78527327 116.77227632 289.65849989 118 287 C123.69226038 280.78717505 129.24518914 277.77691221 137.609375 277.04296875 C145.66054988 276.89825809 151.9102929 279.84444214 158 285 C163.48240681 290.81588654 165.51948853 297.66781477 165.31640625 305.6015625 C164.38623236 312.65251026 161.18016953 319.15766761 156 324 C148.54469512 329.35361893 140.99086911 330.26820745 132 329 C125.23156499 326.93489953 119.65850534 323.14282822 116 317 C115.34 315.02 114.68 313.04 114 311 C88.59 311 63.18 311 37 311 C37 327.5 37 344 37 361 C58.12 361 79.24 361 101 361 C101.66 359.02 102.32 357.04 103 355 C106.65850534 348.85717178 112.23156499 345.06510047 119 343 C127.96272682 341.73576216 135.5952793 342.59987219 143 348 C148.47391144 352.78821977 151.44089118 358.40288302 152.31640625 365.6015625 C152.65984192 373.46734723 151.19915509 380.1688326 146.08203125 386.296875 C140.23378832 391.9691531 134.37752356 394.83476883 126.203125 395.0859375 C117.71380934 394.64036568 111.84630816 392.32169235 106.125 386 C103.8923938 383.34164099 102.5877916 381.1755832 101 378 C69.32 377.505 69.32 377.505 37 377 C37 389.87 37 402.74 37 416 C40.0834375 415.95359375 43.166875 415.9071875 46.34375 415.859375 C49.34894161 415.82812922 52.35411473 415.80387002 55.359375 415.78027344 C57.43888525 415.76022841 59.51833963 415.73298487 61.59765625 415.69824219 C64.59649487 415.64941052 67.59458463 415.62695972 70.59375 415.609375 C71.51490601 415.58872986 72.43606201 415.56808472 73.38513184 415.54681396 C80.85734548 415.54424948 85.89804796 417.3307142 91.57299805 422.21411133 C92.29527588 422.9955249 93.01755371 423.77693848 93.76171875 424.58203125 C94.57060547 425.43087891 95.37949219 426.27972656 96.21289062 427.15429688 C97.87781474 428.94274338 99.53921648 430.7344748 101.19726562 432.52929688 C102.00228516 433.37169922 102.80730469 434.21410156 103.63671875 435.08203125 C104.35561279 435.85780518 105.07450684 436.6335791 105.81518555 437.43286133 C107.90711406 439.29470496 107.90711406 439.29470496 110.59790039 438.75976562 C111.39059326 438.50904297 112.18328613 438.25832031 113 438 C122.47338721 437.19290975 128.74366386 438.774521 136.75 443.6875 C141.89576161 448.97619943 145.11069106 455.68054143 145.3125 463.0625 C145.20018465 470.15708637 143.69985887 475.82496597 139.046875 481.296875 C132.9931559 487.0965919 127.36659719 489.50699709 119.125 490.4375 C112.12344927 490.10209637 105.22651973 487.57758258 100.0625 482.8125 C94.2022465 476.16336622 92.54376645 469.85942602 92.6640625 461.08984375 C93 458 93 458 93.67602539 456.16235352 C94.79830662 453.0437919 95.3405394 450.98002312 94.23046875 447.78540039 C90.38641392 441.19487707 84.99489939 436.04737574 78 433 C64.79273944 430.1093833 50.4068834 431.31705555 37 432 C37.01571045 432.59312988 37.0314209 433.18625977 37.04760742 433.79736328 C37.50517387 453.74880486 36.36728412 471.67763419 22.5625 487.4375 C21.0632716 488.97963561 19.54351854 490.50219542 18 492 C17.36320312 492.64582031 16.72640625 493.29164063 16.0703125 493.95703125 C10.75692397 499.01687635 4.71978557 502.14603702 -2 505 C-3.20849609 505.51433594 -3.20849609 505.51433594 -4.44140625 506.0390625 C-19.39276637 511.1748427 -38.23590731 509.25204523 -52.234375 502.421875 C-62.30562025 496.86014255 -74.1252353 488.27910162 -77.703125 476.73046875 C-79.02284033 474.56230715 -79.02284033 474.56230715 -82.7109375 474.3125 C-84.2646459 474.19462667 -85.81950416 474.09130496 -87.375 474 C-95.07627504 473.34423124 -101.82421788 472.00749692 -109 469 C-109.8353125 468.66355469 -110.670625 468.32710938 -111.53125 467.98046875 C-128.21442581 460.50999604 -138.3284214 446.53582684 -145 430 C-146.99274073 424.40134748 -147.54966103 418.88995971 -148 413 C-149.02480469 413.03480469 -150.04960937 413.06960938 -151.10546875 413.10546875 C-152.46612936 413.13362035 -153.8268078 413.16091904 -155.1875 413.1875 C-156.19780273 413.22520508 -156.19780273 413.22520508 -157.22851562 413.26367188 C-161.67680175 413.32876875 -164.52562381 412.84267143 -168 410 C-168.8125 406.8125 -168.8125 406.8125 -169 404 C-170.60875 403.690625 -170.60875 403.690625 -172.25 403.375 C-180.05581434 401.44093905 -187.18926909 397.17110577 -194 393 C-194.33 393.33 -194.66 393.66 -195 394 C-199.1262384 394.6877064 -200.80602629 394.1221316 -204.375 391.875 C-214.30957125 382.49112561 -219.75176378 367.89222222 -220.3046875 354.5078125 C-220.46952821 345.95314833 -220.25310221 338.2733913 -218 330 C-218 328.68 -218 327.36 -218 326 C-220.06403897 324.12477203 -220.06403897 324.12477203 -222.8125 322.4375 C-242.22457085 308.90636461 -253.79047181 289.21523384 -258 266 C-258.13148438 265.28457031 -258.26296875 264.56914062 -258.3984375 263.83203125 C-261.69593873 242.22002993 -255.74955756 219.18404027 -243.19140625 201.4453125 C-235.99363308 192.14758539 -228.06766659 184.12142818 -218 178 C-218.13929932 177.33572998 -218.27859863 176.67145996 -218.42211914 175.98706055 C-222.10012113 157.36218039 -221.6658151 138.72069986 -211.75 122.125 C-201.17272074 106.91016633 -187.6637951 96.76779132 -169.48046875 92.4921875 C-162.3615417 91.48547054 -155.17018023 91.78489459 -148 92 C-147.87044922 90.58460937 -147.87044922 90.58460937 -147.73828125 89.140625 C-145.71889449 70.68824687 -137.67022979 54.82022251 -123 43 C-111.37502058 34.53413299 -97.42649882 29.88833979 -83 30 C-80.6640625 30.48828125 -80.6640625 30.48828125 -79 31 C-78.74089844 30.11957031 -78.48179687 29.23914062 -78.21484375 28.33203125 C-73.78687231 16.18714495 -63.13036501 7.4929515 -52 1.625 C-50.01524413 0.71595151 -48.01558241 -0.16151772 -46 -1 C-45.19820312 -1.3403125 -44.39640625 -1.680625 -43.5703125 -2.03125 C-30.14395672 -6.66398618 -12.92789081 -5.56950503 0 0 Z " fill="#ED4F4F" transform="translate(263,4)"/>
<path d="M0 0 C0.85207031 0.32742187 1.70414062 0.65484375 2.58203125 0.9921875 C17.21354844 7.30562956 27.95718567 21.10866299 33.77734375 35.49609375 C36.29892167 42.7224688 37.09358425 49.3728838 37 57 C45.08357097 57.38290748 45.08357097 57.38290748 53 56 C55.38819715 53.65081152 56.4249036 51.55772357 57.78515625 48.515625 C60.07531603 43.77330057 64.12558372 41.9154126 68.6875 39.6875 C77.64641831 37.82810186 86.07472232 38.24401854 93.8671875 43.18359375 C99.8790723 47.73766099 103.4113158 53.74494926 104.4453125 61.21875 C104.76201267 70.25526145 102.93347164 76.99496494 96.9375 83.8125 C91.77348027 88.57758258 84.87655073 91.10209637 77.875 91.4375 C69.00512427 90.43606242 63.14214286 87.54585178 57 81 C54.75360239 77.91120329 54 76.80672941 54 73 C48.39 73 42.78 73 37 73 C37 88.84 37 104.68 37 121 C45.07057711 121.01634666 53.13632393 121.02595005 61.20594788 120.97145844 C64.96423838 120.9479879 68.72164305 120.93663173 72.47998047 120.95532227 C76.10508446 120.97287102 79.72860378 120.95612352 83.35351562 120.91632271 C84.73125481 120.9070811 86.10913271 120.90986939 87.48681641 120.92530632 C96.754995 121.09074212 96.754995 121.09074212 104.59936523 116.73510742 C105.75872295 115.51407182 106.89538 114.27076863 108 113 C108.88051025 112.18837402 109.76102051 111.37674805 110.66821289 110.54052734 C113.14857132 108.16764498 115.60825413 105.77487373 118.0625 103.375 C118.94099609 102.54226562 119.81949219 101.70953125 120.72460938 100.8515625 C121.96114258 99.63726562 121.96114258 99.63726562 123.22265625 98.3984375 C123.97297119 97.67317871 124.72328613 96.94791992 125.49633789 96.20068359 C127.27363713 94.09178668 127.27363713 94.09178668 126.80639648 91.45556641 C126.40723022 90.24006104 126.40723022 90.24006104 126 89 C123.66225068 81.33737724 123.28339278 74.4000903 126.5 66.875 C129.68287785 61.15975948 134.85913994 56.29952027 140.8984375 53.80078125 C149.21921464 51.65246977 157.27044772 52.07361172 164.7734375 56.375 C170.00551947 60.19350193 174.05875717 64.76093584 176 71 C176.98802988 80.10027517 176.78591024 88.50078624 171 96 C165.3262093 101.79713397 158.34563155 104.70538091 150.3125 105.25 C147 105 147 105 144.20849609 104.1027832 C140.61210916 103.98757403 140.30182143 104.19498958 137.78369141 106.48510742 C136.62202423 107.67493885 135.47898694 108.88314164 134.3515625 110.10546875 C133.73534027 110.74108231 133.11911804 111.37669586 132.48422241 112.03157043 C130.51377963 114.0676614 128.56808877 116.12531403 126.625 118.1875 C124.68675125 120.22927325 122.74351159 122.2653912 120.78720093 124.28987122 C119.57168128 125.54916652 118.36654968 126.81860405 117.17398071 128.09965515 C110.9650123 134.56219538 106.03210958 137.1574808 96.94140625 137.45410156 C94.14756822 137.46968367 91.35598798 137.43194168 88.5625 137.390625 C87.07178511 137.38315296 85.58106031 137.37746458 84.09033203 137.37347412 C80.19061565 137.35829323 76.29150711 137.31907846 72.39202881 137.2746582 C67.70054178 137.22629606 63.00885007 137.20813541 58.31718445 137.18484497 C51.21103518 137.14622098 44.10621629 137.06951733 37 137 C37 147.23 37 157.46 37 168 C39.60406738 167.98428955 42.20813477 167.9685791 44.89111328 167.95239258 C53.50047191 167.90265576 62.10983692 167.86953462 70.71930122 167.84456348 C75.93859591 167.82891589 81.15774324 167.80769399 86.37695312 167.77368164 C91.41495078 167.74105613 96.45280679 167.72314017 101.49090195 167.71536827 C103.41181543 167.70983051 105.33272127 167.6990166 107.25357437 167.68280983 C109.94672574 167.66099321 112.63929383 167.65803485 115.33251953 167.65942383 C116.12446213 167.648638 116.91640472 167.63785217 117.73234558 167.6267395 C125.00174146 167.66723629 129.55673216 170.2615634 134.875 175.1875 C135.72835938 175.97769531 136.58171875 176.76789063 137.4609375 177.58203125 C149.78003513 189.31360269 149.78003513 189.31360269 150.375 193.875 C149.89467195 197.87773372 149.07536739 199.38593772 146 202 C142.60675017 202.66752456 141.17496191 202.93873638 138 202 C135.99309558 200.50903179 134.45247594 198.88376293 132.796875 197.01171875 C130.90866319 194.89774249 128.90235327 193.09206877 126.75 191.25 C123.07223609 188.1018341 123.07223609 188.1018341 121.88517761 186.4283905 C118.90316679 184.16893446 115.63707071 184.56088249 112.0402832 184.56762695 C111.23029877 184.5574353 110.42031433 184.54724365 109.58578491 184.53674316 C106.90738068 184.50653875 104.22933363 184.49733598 101.55078125 184.48828125 C99.69417627 184.47144006 97.83758274 184.45329058 95.98100281 184.43388367 C91.09349136 184.38631663 86.20602629 184.35655069 81.31835938 184.33044434 C75.45453085 184.29543854 69.59088049 184.23840682 63.72719574 184.18505096 C54.81815277 184.10645848 45.90934429 184.05591235 37 184 C37 197.86 37 211.72 37 226 C42.94 226 48.88 226 55 226 C55.33 224.35 55.66 222.7 56 221 C59.99544386 214.5486411 65.78001987 210.21837227 73 208 C81.18205332 206.90202123 88.27355892 207.79401331 95.125 212.44140625 C101.3631158 217.38373697 104.43697269 222.42071118 105.41015625 230.3359375 C105.74494175 238.25061003 104.86140065 244.59286274 100 251 C94.37289693 256.76166423 87.04545295 259.99188319 79 260.375 C70.20847119 259.93891226 63.95794232 256.34954417 58 250 C55.75360239 246.91120329 55 245.80672941 55 242 C49.06 242 43.12 242 37 242 C37 259.49 37 276.98 37 295 C50.58821158 295.02560882 50.58821158 295.02560882 64.17578125 294.98632812 C69.71749406 294.95590146 75.25850863 294.9330921 80.80029297 294.95532227 C85.26817169 294.97276976 89.73475563 294.95632374 94.2024765 294.91632271 C95.90729285 294.90702494 97.61222106 294.9099632 99.31699371 294.92530632 C101.7052914 294.94471527 104.08949173 294.92071185 106.47753906 294.88647461 C107.18316483 294.9022908 107.88879059 294.91810699 108.61579895 294.93440247 C110.86193368 294.946173 110.86193368 294.946173 114 294 C115.84294148 291.78527327 116.77227632 289.65849989 118 287 C123.69226038 280.78717505 129.24518914 277.77691221 137.609375 277.04296875 C145.66054988 276.89825809 151.9102929 279.84444214 158 285 C163.48240681 290.81588654 165.51948853 297.66781477 165.31640625 305.6015625 C164.38623236 312.65251026 161.18016953 319.15766761 156 324 C148.54469512 329.35361893 140.99086911 330.26820745 132 329 C125.23156499 326.93489953 119.65850534 323.14282822 116 317 C115.34 315.02 114.68 313.04 114 311 C88.59 311 63.18 311 37 311 C37 327.5 37 344 37 361 C58.12 361 79.24 361 101 361 C101.66 359.02 102.32 357.04 103 355 C106.65850534 348.85717178 112.23156499 345.06510047 119 343 C127.96272682 341.73576216 135.5952793 342.59987219 143 348 C148.47391144 352.78821977 151.44089118 358.40288302 152.31640625 365.6015625 C152.65984192 373.46734723 151.19915509 380.1688326 146.08203125 386.296875 C140.23378832 391.9691531 134.37752356 394.83476883 126.203125 395.0859375 C117.71380934 394.64036568 111.84630816 392.32169235 106.125 386 C103.8923938 383.34164099 102.5877916 381.1755832 101 378 C69.32 377.505 69.32 377.505 37 377 C37 389.87 37 402.74 37 416 C40.0834375 415.95359375 43.166875 415.9071875 46.34375 415.859375 C49.34894161 415.82812922 52.35411473 415.80387002 55.359375 415.78027344 C57.43888525 415.76022841 59.51833963 415.73298487 61.59765625 415.69824219 C64.59649487 415.64941052 67.59458463 415.62695972 70.59375 415.609375 C71.51490601 415.58872986 72.43606201 415.56808472 73.38513184 415.54681396 C80.85734548 415.54424948 85.89804796 417.3307142 91.57299805 422.21411133 C92.29527588 422.9955249 93.01755371 423.77693848 93.76171875 424.58203125 C94.57060547 425.43087891 95.37949219 426.27972656 96.21289062 427.15429688 C97.87781474 428.94274338 99.53921648 430.7344748 101.19726562 432.52929688 C102.00228516 433.37169922 102.80730469 434.21410156 103.63671875 435.08203125 C104.35561279 435.85780518 105.07450684 436.6335791 105.81518555 437.43286133 C107.90711406 439.29470496 107.90711406 439.29470496 110.59790039 438.75976562 C111.39059326 438.50904297 112.18328613 438.25832031 113 438 C122.47338721 437.19290975 128.74366386 438.774521 136.75 443.6875 C141.89576161 448.97619943 145.11069106 455.68054143 145.3125 463.0625 C145.20018465 470.15708637 143.69985887 475.82496597 139.046875 481.296875 C132.9931559 487.0965919 127.36659719 489.50699709 119.125 490.4375 C112.12344927 490.10209637 105.22651973 487.57758258 100.0625 482.8125 C94.2022465 476.16336622 92.54376645 469.85942602 92.6640625 461.08984375 C93 458 93 458 93.67602539 456.16235352 C94.79830662 453.0437919 95.3405394 450.98002312 94.23046875 447.78540039 C90.38641392 441.19487707 84.99489939 436.04737574 78 433 C64.79273944 430.1093833 50.4068834 431.31705555 37 432 C37.01571045 432.59312988 37.0314209 433.18625977 37.04760742 433.79736328 C37.50517387 453.74880486 36.36728412 471.67763419 22.5625 487.4375 C21.0632716 488.97963561 19.54351854 490.50219542 18 492 C17.36320312 492.64582031 16.72640625 493.29164063 16.0703125 493.95703125 C10.75692397 499.01687635 4.71978557 502.14603702 -2 505 C-3.20849609 505.51433594 -3.20849609 505.51433594 -4.44140625 506.0390625 C-19.39276637 511.1748427 -38.23590731 509.25204523 -52.234375 502.421875 C-62.30562025 496.86014255 -74.1252353 488.27910162 -77.703125 476.73046875 C-79.02284033 474.56230715 -79.02284033 474.56230715 -82.7109375 474.3125 C-84.2646459 474.19462667 -85.81950416 474.09130496 -87.375 474 C-95.07627504 473.34423124 -101.82421788 472.00749692 -109 469 C-109.8353125 468.66355469 -110.670625 468.32710938 -111.53125 467.98046875 C-128.21442581 460.50999604 -138.3284214 446.53582684 -145 430 C-146.99274073 424.40134748 -147.54966103 418.88995971 -148 413 C-149.02480469 413.03480469 -150.04960937 413.06960938 -151.10546875 413.10546875 C-152.46612936 413.13362035 -153.8268078 413.16091904 -155.1875 413.1875 C-156.19780273 413.22520508 -156.19780273 413.22520508 -157.22851562 413.26367188 C-161.68534353 413.32889375 -164.500847 412.81381983 -168 410 C-169.25432981 406.39380179 -169.336529 404.74036381 -167.75 401.25 C-166 399 -166 399 -163 397 C-160.45824003 396.77207828 -157.98300246 396.63467538 -155.4375 396.5625 C-144.24113645 396.01444376 -132.28864704 393.28864704 -124 385 C-116.86632826 384.53976311 -116.86632826 384.53976311 -114 386.0625 C-112.36486377 389.23057644 -112.51740113 391.50115821 -113 395 C-117.4360704 400.86706085 -124.67473799 405.9166866 -132 407 C-130.44775441 423.95886231 -125.61544823 436.86117091 -112.43359375 448.17578125 C-101.00538739 456.74235006 -88.84977446 458.31026449 -75 457 C-65.31054826 455.40414202 -58.00168991 451.15235045 -50.78125 444.79296875 C-47.27032582 442.52960611 -45.10383053 442.54940231 -41 443 C-38.5625 444.625 -38.5625 444.625 -37 447 C-36.37963425 450.64464877 -36.54163496 452.31412531 -38.60546875 455.40234375 C-41.36382583 458.39468871 -44.38245653 460.4972725 -47.8125 462.625 C-48.40353516 463.0065625 -48.99457031 463.388125 -49.60351562 463.78125 C-53.5970176 466.30712911 -57.61636742 468.23756641 -62 470 C-59.17769958 478.27777803 -52.52408123 483.51440096 -44.9375 487.4375 C-32.48935371 493.09005448 -20.14563701 493.87632404 -7.03515625 489.3203125 C3.7100968 484.64605828 12.03466989 476.58359354 17 466 C16.02417969 466.03480469 15.04835938 466.06960938 14.04296875 466.10546875 C12.77066406 466.13253906 11.49835938 466.15960938 10.1875 466.1875 C8.92292969 466.22230469 7.65835937 466.25710938 6.35546875 466.29296875 C3 466 3 466 1.08203125 464.734375 C-0.44017869 462.29444282 -0.46325533 459.85710345 -0.59375 457.03515625 C0 455 0 455 5 451 C10.28 451 15.56 451 21 451 C21 432.85 21 414.7 21 396 C14.379375 396.0928125 14.379375 396.0928125 7.625 396.1875 C6.25424316 396.19418701 4.88348633 396.20087402 3.47119141 396.20776367 C-5.1757355 396.42641151 -12.38012998 397.72673893 -18.90039062 403.7578125 C-23.41417254 408.69028067 -24.20227352 414.47900729 -25.1640625 420.92578125 C-26 424 -26 424 -27.8984375 425.88671875 C-30.86002442 427.45558914 -32.70028548 427.54995242 -36 427 C-38.80827753 424.85684083 -39.80171812 423.1192734 -40.41796875 419.640625 C-40.95955688 409.51146316 -37.20607185 401.16374122 -30.6875 393.5625 C-23.28597254 385.953681 -17.73024886 383.92643151 -7 381 C2.24 381 11.48 381 21 381 C21 347.01 21 313.02 21 278 C7.53445313 278.08701172 7.53445313 278.08701172 -6.203125 278.17578125 C-12.60337706 278.20456786 -19.00358064 278.23020069 -25.40385628 278.25126934 C-33.70020943 278.27900075 -41.99631186 278.31423339 -50.29248047 278.37719727 C-56.85983094 278.42701651 -63.42699244 278.45928715 -69.99452662 278.47044247 C-73.47245217 278.47696394 -76.94983707 278.49230083 -80.42758942 278.52865028 C-84.3089261 278.56888935 -88.18973273 278.56995037 -92.07128906 278.56762695 C-93.22575027 278.58560333 -94.38021149 278.60357971 -95.56965637 278.62210083 C-103.3201706 278.57171457 -103.3201706 278.57171457 -106.74554443 275.69108582 C-108.46884131 271.99423126 -108.1480593 269.87470015 -107 266 C-104.02151597 263.10689533 -101.90051788 262.62682029 -97.8114624 262.63923645 C-96.24144281 262.63303771 -96.24144281 262.63303771 -94.63970566 262.62671375 C-93.49242115 262.63750808 -92.34513664 262.6483024 -91.16308594 262.65942383 C-89.93349277 262.65906222 -88.70389961 262.65870062 -87.43704605 262.65832806 C-84.1137847 262.66019728 -80.791086 262.67502581 -77.46792603 262.69615936 C-74.34858089 262.71325656 -71.2292497 262.71404939 -68.10986328 262.71618652 C-58.98986592 262.73192239 -49.86992885 262.77380593 -40.75 262.8125 C-20.3725 262.874375 0.005 262.93625 21 263 C21 221.42 21 179.84 21 137 C-0.88362379 137.15792322 -0.88362379 137.15792322 -22.7668457 137.36035156 C-27.03356934 137.37841797 -27.03356934 137.37841797 -29.04142761 137.3817749 C-30.42099698 137.38785115 -31.80054733 137.40177969 -33.17997742 137.42230225 C-48.10799963 137.6329725 -58.10961558 134.4678711 -68.97265625 124.12109375 C-76.27114293 116.45070966 -79.4163362 106.82232699 -79.27734375 96.3515625 C-79 94 -79 94 -77.375 91.375 C-74.22568648 89.55171323 -72.58638897 89.3412755 -69 90 C-66.1875 91.9375 -66.1875 91.9375 -64 95 C-63.61211242 97.20371298 -63.49314297 99.36119506 -63.35546875 101.59375 C-62.53262248 107.16378626 -59.28328637 112.15149424 -55.125 115.875 C-46.89019462 121.47466766 -39.54899877 121.46989972 -29.87890625 121.51171875 C-28.4091595 121.52858307 -26.93942702 121.54673566 -25.4697113 121.56611633 C-21.62127136 121.61343264 -17.77288929 121.6433602 -13.92425537 121.66955566 C-9.29593995 121.70472105 -4.66784667 121.76168103 -0.039711 121.81494904 C6.97349703 121.89324748 13.98641858 121.9440149 21 122 C21 105.5 21 89 21 72 C15.39 72 9.78 72 4 72 C0 68 0 68 -0.5 64.5 C0 61 0 61 1.484375 58.796875 C5.17019652 56.16414535 8.34253556 56.55996007 12.75 56.75 C13.54277344 56.76804688 14.33554687 56.78609375 15.15234375 56.8046875 C17.10208348 56.85166918 19.05119878 56.92340956 21 57 C20.70753455 43.49341387 15.71618947 32.82117164 6.27734375 23.25390625 C2.2628573 19.58691521 -2.04250944 17.17876974 -7 15 C-7.845625 14.608125 -8.69125 14.21625 -9.5625 13.8125 C-20.98095476 10.00634841 -33.07580575 11.47045604 -44 16 C-51.6946459 20.05165725 -59.03910453 25.63225195 -62 34 C-61.03320312 34.47308594 -60.06640625 34.94617187 -59.0703125 35.43359375 C-50.62827863 39.6763461 -43.64489302 44.16074082 -37 51 C-36.05060547 51.91845703 -36.05060547 51.91845703 -35.08203125 52.85546875 C-26.47016072 61.77151131 -20.95266126 74.72366064 -20 87 C-19.92265625 87.84433594 -19.8453125 88.68867187 -19.765625 89.55859375 C-19.5247314 94.06196575 -19.55800795 96.31692137 -22.0625 100.1875 C-25 102 -25 102 -28.625 102.0625 C-32.42481093 100.86626323 -33.10828226 100.38955877 -35 97 C-35.44921875 93.671875 -35.44921875 93.671875 -35.6875 89.75 C-36.78519965 78.06637625 -41.98139821 66.46390119 -50.8828125 58.6015625 C-63.17125741 49.30587539 -75.68997992 45.52179116 -91 47 C-103.00593168 49.34583517 -114.55181784 55.05422382 -122 65 C-128.84279616 76.41878368 -131.23487189 85.52577206 -131.25390625 98.78320312 C-131.43965408 105.35769873 -131.43965408 105.35769873 -134.296875 108.6328125 C-137.03883144 110.01964018 -138.05722638 110.41173415 -141 109.8125 C-141.639375 109.69519531 -142.27875 109.57789062 -142.9375 109.45703125 C-144.42597998 109.12719762 -145.9142335 108.79634148 -147.40234375 108.46484375 C-162.04850513 105.84395171 -175.16555155 110.29709327 -187.18359375 118.48828125 C-196.57841359 125.86861731 -202.55620996 137.23311116 -204 149 C-204.39474158 156.46213413 -204.17219275 163.61707631 -203 171 C-202.40574219 170.80664062 -201.81148437 170.61328125 -201.19921875 170.4140625 C-190.58152625 167.07848881 -179.17982657 164.31946556 -168 166 C-165.07177755 168.26840917 -164.13884099 169.27494152 -163.4375 172.9375 C-164.19786231 177.07725037 -165.75638533 178.37442542 -169 181 C-172.20703125 181.53125 -172.20703125 181.53125 -175.8125 181.5 C-194.29628425 181.99189425 -211.29474579 190.78476176 -224 204 C-237.70023372 218.47383526 -242.4501568 236.50217086 -242.1484375 256.0390625 C-241.45101355 274.6492701 -233.18038987 291.07186639 -220 304 C-214.35831875 309.01178971 -214.35831875 309.01178971 -208 313 C-207.6596875 312.195625 -207.6596875 312.195625 -207.3125 311.375 C-202.97668022 303.52923087 -194.98521035 296.99260517 -187 293 C-179.85404504 292.54628857 -179.85404504 292.54628857 -177 294.0625 C-175.36486377 297.23057644 -175.51740113 299.50115821 -176 303 C-178.51841483 306.22671901 -181.52387802 308.38245163 -184.8125 310.75 C-194.31184062 317.7759274 -201.58419794 327.53461797 -203.7109375 339.3359375 C-205.52779853 356.08052158 -201.85857618 368.1131884 -192 382 C-191.67 382.33 -191.34 382.66 -191 383 C-191.60960334 391.07724426 -191.60960334 391.07724426 -195 394 C-197.75 394.625 -197.75 394.625 -201 394 C-210.86482413 387.78881443 -216.5693871 375.03451583 -219.3828125 364.0546875 C-221.41104214 352.87931453 -220.9713902 340.9109448 -218 330 C-218 328.68 -218 327.36 -218 326 C-220.06403897 324.12477203 -220.06403897 324.12477203 -222.8125 322.4375 C-242.22457085 308.90636461 -253.79047181 289.21523384 -258 266 C-258.13148438 265.28457031 -258.26296875 264.56914062 -258.3984375 263.83203125 C-261.69593873 242.22002993 -255.74955756 219.18404027 -243.19140625 201.4453125 C-235.99363308 192.14758539 -228.06766659 184.12142818 -218 178 C-218.13929932 177.33572998 -218.27859863 176.67145996 -218.42211914 175.98706055 C-222.10012113 157.36218039 -221.6658151 138.72069986 -211.75 122.125 C-201.17272074 106.91016633 -187.6637951 96.76779132 -169.48046875 92.4921875 C-162.3615417 91.48547054 -155.17018023 91.78489459 -148 92 C-147.87044922 90.58460937 -147.87044922 90.58460937 -147.73828125 89.140625 C-145.71889449 70.68824687 -137.67022979 54.82022251 -123 43 C-111.37502058 34.53413299 -97.42649882 29.88833979 -83 30 C-80.6640625 30.48828125 -80.6640625 30.48828125 -79 31 C-78.74089844 30.11957031 -78.48179687 29.23914062 -78.21484375 28.33203125 C-73.78687231 16.18714495 -63.13036501 7.4929515 -52 1.625 C-50.01524413 0.71595151 -48.01558241 -0.16151772 -46 -1 C-45.19820312 -1.3403125 -44.39640625 -1.680625 -43.5703125 -2.03125 C-30.14395672 -6.66398618 -12.92789081 -5.56950503 0 0 Z " fill="#010000" transform="translate(263,4)"/>
<path d="M0 0 C0.99 0.99 0.99 0.99 2 2 C-0.28388747 7.52941176 -0.28388747 7.52941176 -3.1875 9.4375 C-7.05086578 10.21017316 -10.11927177 9.65775055 -14 9 C-13.67 9.66 -13.34 10.32 -13 11 C-12.31232092 18.10601719 -12.31232092 18.10601719 -14.875 21.4375 C-17.95905677 22.97952839 -19.52335819 23.2331316 -22.875 23.4375 C-28.11160573 23.78088398 -31.34284159 25.21991189 -35 29 C-37.58260857 33.0583849 -38.84327579 37.45146525 -40.15625 42.046875 C-41 44 -41 44 -44 46 C-47.6233318 45.87059529 -50.06985031 45.75012072 -52.9375 43.4375 C-55.07695739 38.52933305 -54.26886467 33.07545869 -53 28 C-53.66 28 -54.32 28 -55 28 C-55.66795088 29.33269045 -56.33420952 30.66622893 -57 32 C-57.474375 32.93972656 -57.94875 33.87945312 -58.4375 34.84765625 C-63.80885019 45.89920927 -65.3326735 54.78690634 -64.77734375 67.03125 C-65 70 -65 70 -66.1328125 71.95703125 C-68.94908862 73.53013946 -70.8209702 72.83347163 -73.9375 72.1875 C-90.55689439 69.23949213 -105.20010215 71.95186454 -119.28515625 81.55859375 C-129.32896987 89.62847868 -135.65442253 102.32782018 -137.41015625 114.93359375 C-138 117 -138 117 -141 119 C-141.99 119 -142.98 119 -144 119 C-147.83991598 107.05189491 -147.1745591 93.69067304 -141.7109375 82.31640625 C-134.14891658 69.03232137 -123.5692248 60.72655778 -109 56 C-102.01504255 54.17783719 -93.64104923 54.05640783 -86.6875 56.0625 C-82.65941919 57.08658834 -80.01947841 56.96467482 -76 56 C-73.60778446 53.60778446 -73.74405258 53.0432581 -73.69140625 49.78125 C-73.65720581 48.51365845 -73.65720581 48.51365845 -73.62231445 47.22045898 C-73.60257568 46.32270752 -73.58283691 45.42495605 -73.5625 44.5 C-73.28903999 37.27976339 -72.99944254 30.68111123 -70 24 C-69.59910156 23.1028125 -69.19820313 22.205625 -68.78515625 21.28125 C-62.4422656 8.4900467 -52.21143926 0.35038033 -38.875 -4.375 C-24.71055808 -8.29388428 -12.97078015 -6.24279444 0 0 Z " fill="#D5474C" transform="translate(204,56)"/>
<path d="M0 0 C2.95454721 2.23620966 5.42020296 4.85251486 7.9375 7.5625 C8.62134766 8.27341797 9.30519531 8.98433594 10.00976562 9.71679688 C11.68760938 11.46503967 13.3498154 13.22569351 15 15 C16.58361328 14.51660156 16.58361328 14.51660156 18.19921875 14.0234375 C26.77720571 11.7136404 34.23747753 12.60341164 42 17 C48.01194752 21.33366007 51.19332818 26.86952601 53 34 C54.21952206 42.08404829 52.30712636 49.41212974 47.52734375 56.04296875 C42.63982498 61.46199075 36.67272378 64.29509455 29.48828125 65.37890625 C21.8622786 65.7500304 15.45089545 63.25058399 9.125 59.125 C3.18111182 53.18111182 0.90532853 47.34486803 0.8125 39.0625 C0.83513198 35.62696578 1.02478593 32.90990673 1.94140625 29.578125 C2.00769934 25.52982716 1.69376908 25.14112024 -0.9296875 22.32421875 C-2.22515068 21.09101198 -3.54123858 19.87918127 -4.875 18.6875 C-6.1864506 17.46390386 -7.49642073 16.23871844 -8.8046875 15.01171875 C-9.68616455 14.21447388 -9.68616455 14.21447388 -10.58544922 13.40112305 C-12.70582749 11.30087263 -12.98853287 10.13187202 -13.25 7.125 C-12.9728981 3.66122621 -12.42730771 2.42730771 -10 0 C-6.02596799 -1.32467734 -4.06751526 -1.10552979 0 0 Z " fill="#000000" transform="translate(439,220)"/>
<path d="M0 0 C6.04975336 4.20803877 9.25282218 9.91824374 11 17 C12.22127622 25.92664783 10.0423092 32.43653621 5.125 39.8125 C-0.66126977 45.76895417 -6.6508228 48.06467007 -14.8125 48.375 C-22.74325071 48.23724502 -29.27484036 45.56158365 -35 40 C-40.71967045 32.48271884 -42.11423104 25.30089697 -41 16 C-38.75628583 8.64270469 -34.43604959 3.16722636 -28 -1 C-18.35147486 -5.72305426 -9.43055425 -4.74342803 0 0 Z " fill="#000101" transform="translate(464,405)"/>
<path d="M0 0 C6.17642403 5.15752414 9.96599167 10.96840041 11 19 C11.2482741 27.08019343 9.69982819 33.83978595 4.2734375 39.94140625 C-1.49493216 45.44548806 -7.53898328 48.02886884 -15.5 48.375 C-22.74439842 48.07209832 -29.13179098 45.88702794 -34.42578125 40.83984375 C-40.25504376 34.0269836 -41.83783309 27.29206595 -41.48046875 18.40625 C-40.40997168 10.81703499 -36.98590091 4.82558715 -30.87109375 0.18359375 C-21.3184544 -5.85909878 -9.68518579 -5.94901313 0 0 Z " fill="#010000" transform="translate(472,135)"/>
<path d="M0 0 C6.17642403 5.15752414 9.96599167 10.96840041 11 19 C11.2482741 27.08019343 9.69982819 33.83978595 4.2734375 39.94140625 C-1.4736776 45.42520731 -7.51736369 47.99129514 -15.4375 48.4375 C-23.24399826 48.13725007 -30.69487669 44.67524819 -36 39 C-41.35361893 31.54469512 -42.26820745 23.99086911 -41 15 C-38.63606677 7.25213073 -34.18628474 1.89595093 -27.16015625 -2.02734375 C-18.32503849 -5.94804018 -8.17141373 -5.01919618 0 0 Z " fill="#010000" transform="translate(497,327)"/>
<path d="M0 0 C12.86608777 3.72439383 22.75223001 10.90734462 29.58203125 22.36328125 C35.481534 33.87851319 37.30805 46.12883593 33.5 58.625 C28.06568426 72.83347137 19.55292665 81.74432243 5.7890625 88.28125 C1.0893002 90.21077118 -2.8312122 90.56056735 -7.9375 90.625 C-9.16597656 90.65078125 -10.39445312 90.6765625 -11.66015625 90.703125 C-14.875 90.375 -14.875 90.375 -16.77734375 89.10546875 C-18.71411459 86.05212539 -18.57837802 82.79534802 -17.875 79.375 C-16 76.9375 -16 76.9375 -12.875 75.375 C-11.35905966 75.20040358 -9.83631167 75.0809755 -8.3125 75 C-0.82967807 74.48625402 5.86769717 71.44238941 11.3359375 66.29296875 C17.63212 58.70832696 19.74174158 51.08375619 19.48046875 41.3046875 C18.93388405 36.79986858 17.36271613 33.28125707 15.125 29.375 C14.568125 28.323125 14.01125 27.27125 13.4375 26.1875 C9.03874946 20.83766826 2.91035405 16.89824275 -3.875 15.375 C-5.58269354 15.24154389 -7.29111738 15.1172518 -9 15 C-12.18384616 14.70750811 -13.70930125 14.47363021 -16.5 12.8125 C-18.61897724 9.05613125 -18.41981237 6.66539743 -17.875 2.375 C-12.9464621 -2.53133728 -6.3356741 -1.02188292 0 0 Z " fill="#040101" transform="translate(114.875,132.625)"/>
<path d="M0 0 C0.7360144 -0.00525696 1.47202881 -0.01051392 2.23034668 -0.01593018 C4.63523293 -0.02901146 7.03944434 -0.02043867 9.44433594 -0.01025391 C11.12725958 -0.0122772 12.81018237 -0.01519076 14.49310303 -0.01895142 C18.0065553 -0.0233579 21.5197777 -0.01699476 25.03320312 -0.00292969 C29.53471147 0.01421425 34.03568519 0.00427777 38.53717422 -0.01364708 C42.00644973 -0.02448535 45.4755983 -0.02103932 48.94487762 -0.0132637 C50.60505995 -0.01126455 52.26525386 -0.01371099 53.92542267 -0.02070236 C56.24225982 -0.02832356 58.55822762 -0.01670657 60.875 0 C62.85067963 0.00358017 62.85067963 0.00358017 64.86627197 0.00723267 C68.35889707 0.40890611 69.81666974 0.81194685 72.17871094 3.38818359 C72.96026434 8.85905738 72.96026434 8.85905738 72.17871094 11.38818359 C69.42137201 14.15092501 67.77364955 15.30203767 63.87336731 15.86679077 C62.61779526 15.85757599 61.36222321 15.84836121 60.06860352 15.83886719 C59.37192566 15.83956711 58.6752478 15.84026703 57.9574585 15.84098816 C56.45041373 15.84027302 54.94335201 15.83059834 53.4364109 15.81290817 C51.04271491 15.78628152 48.6503344 15.78634686 46.2565155 15.79360962 C39.45326882 15.80922599 32.65048364 15.77510686 25.84741211 15.72802734 C21.67871457 15.70102187 17.51080469 15.70340842 13.34207726 15.72249222 C11.76217922 15.72356725 10.18222724 15.71326229 8.60248756 15.69086838 C-0.67396122 15.55985219 -8.54306076 15.8263447 -15.82128906 22.38818359 C-19.80772548 27.5180834 -21.0919855 31.97268772 -21.54003906 38.36865234 C-22.01101453 41.75051788 -23.18298896 43.29107325 -25.82128906 45.38818359 C-28.83274601 46.06819 -30.64758338 45.84157012 -33.82128906 45.38818359 C-36.04502772 43.2099305 -36.75344314 41.80503874 -37.25488281 38.72412109 C-37.26996823 27.28937379 -33.84991161 18.63090274 -25.82128906 10.38818359 C-18.01070182 3.82627099 -10.3203102 -0.09276372 0 0 Z " fill="#040101" transform="translate(124.8212890625,322.61181640625)"/>
<path d="M0 0 C11.23482126 3.81110545 19.10348052 10.4259096 24.76171875 20.86328125 C28.99456847 29.6693847 29.35547449 39.65073353 26.31640625 48.9375 C22.36806512 58.45508021 15.64585675 66.00305271 6.2890625 70.40625 C0.13839561 72.93515856 -5.38628261 74.89642749 -12.12109375 74.1875 C-15.54232548 71.71256641 -16.91586396 70.30486219 -17.68359375 66.125 C-17.12109375 63.1875 -17.12109375 63.1875 -15.74609375 60.9375 C-12.45668914 58.74456359 -9.57133989 58.39431708 -5.71875 57.73046875 C-0.06504862 56.54871764 4.26730073 54.4259141 7.75390625 49.75 C8.48807483 48.5782966 9.19971104 47.39190285 9.87890625 46.1875 C10.31203125 45.424375 10.74515625 44.66125 11.19140625 43.875 C12.7950825 37.60608374 12.73226831 32.10735035 9.69140625 26.3125 C5.93593936 20.33741542 1.50623104 17.54637832 -5.12109375 15.1875 C-6.51328231 15.01021756 -7.90983307 14.86439678 -9.30859375 14.75 C-13.12109375 14.1875 -13.12109375 14.1875 -15.62109375 12.5625 C-17.7503128 9.19123651 -17.74913131 7.09528928 -17.12109375 3.1875 C-12.51352414 -2.60911983 -6.51866748 -1.69697476 0 0 Z " fill="#040101" transform="translate(169.12109375,356.8125)"/>
<path d="M0 0 C9.10345422 2.93821833 16.02769416 8.79963548 20.95703125 16.875 C24.91176258 24.93257995 25.47979393 33.72899848 23.0546875 42.3671875 C18.61622277 53.56105137 12.40385571 59.08441588 1.53515625 64.1484375 C-2.92551167 65.64678204 -7.35931468 65.56402175 -12 65 C-14.6875 63.4375 -14.6875 63.4375 -16 61 C-16.5625 57.5 -16.5625 57.5 -16 54 C-13.13982309 50.47244847 -10.42662109 49.80040697 -6.125 49.125 C-0.80119465 48.23505045 2.53046094 46.12007763 6 42 C8.93079027 37.3087686 8.57662675 32.34897179 8 27 C6.949903 22.97212794 5.20556374 20.80510691 1.75390625 18.5 C-2.19935262 16.38196785 -5.47428592 15.07510201 -9.9375 14.4375 C-13 14 -13 14 -14.9375 12.375 C-16.4171131 9.06762954 -16.39053796 6.57993132 -16 3 C-12.49547217 -2.15512455 -5.46047789 -0.65998935 0 0 Z " fill="#040101" transform="translate(245,180)"/>
<path d="M0 0 C0.87042243 1.88842514 1.72075474 3.78611902 2.5625 5.6875 C3.03816406 6.74324219 3.51382813 7.79898438 4.00390625 8.88671875 C5.09878311 12.30874565 5.45882023 13.720356 4 17 C1.85722486 18.63315824 -0.11696466 19.93013713 -2.4375 21.25 C-19.14645956 31.41725428 -31.35048475 46.10921311 -36.58642578 65.13037109 C-38.39168902 72.6566118 -39.57785353 80.25150944 -39 88 C-38.92265625 89.13179688 -38.8453125 90.26359375 -38.765625 91.4296875 C-38.53220345 94.62207045 -38.27601358 97.81105736 -38 101 C-43.60095114 94.38367176 -46.79604401 83.59528819 -47 75 C-47.03867187 73.80632812 -47.07734375 72.61265625 -47.1171875 71.3828125 C-47.58105511 50.43313932 -41.83266444 32.76798494 -27.265625 17.30859375 C-26.51796875 16.54675781 -25.7703125 15.78492188 -25 15 C-24.39671875 14.37222656 -23.7934375 13.74445313 -23.171875 13.09765625 C-18.04554808 8.18306892 -7.36585968 0 0 0 Z " fill="#D6474D" transform="translate(67,189)"/>
<path d="M0 0 C2.88480672 1.94410888 4.65588875 3.40929707 5.4140625 6.9140625 C5.96231629 20.62040714 -0.17400379 34.25051977 -9.125 44.3125 C-14.33883234 49.88393401 -20.09138802 53.72365693 -27 57 C-27.88300781 57.43183594 -28.76601562 57.86367187 -29.67578125 58.30859375 C-36.95555897 61.4254171 -45.19321987 62.49452033 -53 61 C-55.49103499 58.53326779 -56.77509624 56.89961503 -57.625 53.5 C-56.87395172 50.49580687 -55.61943398 48.9282174 -53.1640625 47.0546875 C-49.40337667 45.22186228 -45.36430643 45.02133171 -41.25 44.51171875 C-32.76627851 43.17594049 -24.85397332 38.55712319 -19.30859375 32 C-14.28718246 24.95240521 -11.07326576 17.2251826 -10.5 8.5625 C-10.26900656 5.33372507 -10.11028697 4.17155751 -8.3125 1.375 C-5.20171731 -0.47465457 -3.56396121 -0.65460512 0 0 Z " fill="#050101" transform="translate(201,177)"/>
<path d="M0 0 C3.35614839 0.99441434 4.3304712 1.32729714 6.375 4 C6.96484375 6.41796875 6.96484375 6.41796875 7.3125 9.1875 C8.38552079 15.79137594 10.11941164 21.28630032 15.25 25.8125 C20.79988475 29.69741933 24.73544545 31.36711893 31.56640625 31.3359375 C32.93685376 31.34844243 34.30729651 31.3614792 35.67773438 31.375 C37.81291551 31.37893446 39.94762675 31.37493085 42.08276367 31.36035156 C44.16134532 31.35175942 46.23799492 31.37348093 48.31640625 31.3984375 C49.55076416 31.39505371 50.78512207 31.39166992 52.05688477 31.38818359 C56.28740508 32.16823539 57.78820255 33.62148854 60.375 37 C60.375 40.43760203 60.17628294 42.77489504 58.27368164 45.68383789 C55.3753417 47.69296102 52.40062535 47.44793603 48.99609375 47.43359375 C48.2693898 47.4388356 47.54268585 47.44407745 46.79396057 47.44947815 C45.25319696 47.45590139 43.71238434 47.45455737 42.17163086 47.44604492 C39.84461614 47.43761633 37.5201263 47.46615303 35.19335938 47.49804688 C21.01260795 47.56655614 12.07223137 44.02517258 1.65625 34.4140625 C-4.95754875 27.49656891 -9.10512875 16.77375521 -8.96484375 7.234375 C-8.625 5 -8.625 5 -6.5625 1.875 C-3.625 0 -3.625 0 0 0 Z " fill="#040101" transform="translate(66.625,235)"/>
<path d="M0 0 C10.06017808 8.97525691 10.06017808 8.97525691 10.9921875 14.77734375 C9.61546875 14.05417969 9.61546875 14.05417969 8.2109375 13.31640625 C-5.22298988 6.35005488 -18.40029656 2.75660237 -33.3828125 7.40234375 C-41.59162739 10.5630167 -47.78525524 14.55478649 -54.0078125 20.77734375 C-60.9378125 16.81734375 -60.9378125 16.81734375 -68.0078125 12.77734375 C-64.10478754 3.01978136 -56.22375569 -2.86681161 -46.8125 -7.10546875 C-30.91738811 -13.43694786 -13.41110129 -10.58345945 0 0 Z " fill="#D5474D" transform="translate(268.0078125,25.22265625)"/>
<path d="M0 0 C1.87109375 1.2890625 1.87109375 1.2890625 3 3 C3.8719346 9.86648501 3.8719346 9.86648501 1.125 13.4375 C-1.95905677 14.97952839 -3.52335819 15.2331316 -6.875 15.4375 C-12.11160573 15.78088398 -15.34284159 17.21991189 -19 21 C-21.58260857 25.0583849 -22.84327579 29.45146525 -24.15625 34.046875 C-25 36 -25 36 -28 38 C-31.6233318 37.87059529 -34.06985031 37.75012072 -36.9375 35.4375 C-39.2515737 30.12874269 -38.3472378 25.34149514 -36.5 20.0625 C-32.5125272 11.04915002 -26.23457272 5.12469258 -17.30859375 1.03125 C-11.63490823 -0.73717146 -5.85580522 -1.00585735 0 0 Z " fill="#050101" transform="translate(188,64)"/>
<path d="M0 0 C0.8037355 -0.00761353 1.60747101 -0.01522705 2.43556213 -0.02307129 C4.13254699 -0.03385867 5.82959816 -0.03673091 7.52661133 -0.03222656 C10.11717912 -0.0312544 12.70478177 -0.07288215 15.29492188 -0.1171875 C16.94660843 -0.12239506 18.59830524 -0.12508268 20.25 -0.125 C21.40646278 -0.1495929 21.40646278 -0.1495929 22.58628845 -0.17468262 C26.6198873 -0.12308757 28.48873241 0.31131688 31.71118164 2.81445312 C33.69140625 5.46875 33.69140625 5.46875 33.81640625 8.53125 C32.39085909 12.25351204 31.0542998 13.34422686 27.69140625 15.46875 C24.89781534 15.85941047 22.50934942 16.03116135 19.72265625 16 C18.96472778 16.0038269 18.20679932 16.00765381 17.42590332 16.01159668 C15.82900661 16.01430955 14.23206499 16.00699203 12.63525391 15.99023438 C10.19853131 15.96881264 7.76475649 15.99005389 5.328125 16.015625 C3.77212895 16.01298161 2.21613472 16.00785639 0.66015625 16 C-0.06393433 16.00809692 -0.7880249 16.01619385 -1.53405762 16.02453613 C-6.38528335 15.93513763 -8.91997362 14.94491252 -12.30859375 11.46875 C-13.23345341 8.47588118 -12.76720318 6.67901599 -12.30859375 3.46875 C-8.9435629 -0.34231409 -4.74138875 0.00123544 0 0 Z " fill="#050101" transform="translate(225.30859375,322.53125)"/>
<path d="M0 0 C2.9375 2.4375 2.9375 2.4375 5 5 C5.33 5.33 5.66 5.66 6 6 C6.43612335 14.86784141 6.43612335 14.86784141 4 18 C1.09203243 20.32637406 -0.78359494 20.97294937 -4.5 21.4375 C-8.61647408 20.92294074 -10.13461399 19.94725418 -13 17 C-15.28647877 13.73360176 -15.54954056 10.92528971 -15 7 C-11.24875145 0.98963523 -7.09661798 -1.26433998 0 0 Z " fill="#31C0C3" transform="translate(406,297)"/>
<path d="M0 0 C3.01333109 1.62256289 5.26132782 3.10074691 7.4375 5.75 C8.33375314 9.33501256 8.16003788 12.53361463 7 16 C4.55174675 18.86624771 2.75122265 20.61349969 -1 21.44140625 C-4.69268247 21.65821147 -6.83081878 21.10798801 -9.9375 19.125 C-13.2611691 15.70061366 -13.52160033 12.97843378 -13.4765625 8.33203125 C-12.73809517 4.71838372 -10.85208854 3.14328428 -7.93359375 1.03515625 C-5.00667165 -0.53178184 -3.24504144 -0.69043435 0 0 Z " fill="#F6BE01" transform="translate(344,58)"/>
<path d="M0 0 C3.6578218 2.03993908 5.66946174 3.50419262 8 7 C8.28258469 10.14375467 7.89447767 12.97782989 7 16 C4.53884447 18.941381 2.78491709 20.57817389 -1 21.47265625 C-5.01514651 21.76922957 -6.81900491 21.14633646 -9.9375 18.625 C-13.1398393 14.54929544 -13.52171797 12.21717968 -13 7 C-9.6917275 1.44506484 -6.43313684 -0.61857085 0 0 Z " fill="#31C1C4" transform="translate(416,72)"/>
<path d="M0 0 C3.54103223 3.0021795 5.74201336 5.108098 6.375 9.75 C5.8528401 14.2753858 4.15770622 15.7671103 1 19 C-2.20417721 20.6020886 -5.52339432 20.49285215 -9 20 C-12.44312714 17.8755173 -13.71617547 16.85147359 -15 13 C-15.37935127 8.90300628 -15.44928789 6.72206983 -13.25 3.1875 C-8.81777754 -1.12160517 -6.11631301 -1.60955606 0 0 Z " fill="#F8BF01" transform="translate(347,228)"/>
<path d="M0 0 C2.87029869 1.79393668 4.49131638 2.98263276 6 6 C6.37712577 10.99691647 6.09290612 13.99067725 3 18 C-1.00254616 20.66836411 -4.29313299 20.8340238 -9 20 C-11.75569447 17.81840855 -13.43588747 16.12822506 -15 13 C-15.39447548 8.81855989 -15.45035186 6.69053952 -13.125 3.125 C-9.24588009 -0.75411991 -5.27012467 -0.68265864 0 0 Z " fill="#F8BF01" transform="translate(486,339)"/>
<path d="M0 0 C2.87029869 1.79393668 4.49131638 2.98263276 6 6 C6.54724071 11.69130337 5.59333707 14.56117185 2 19 C-1.47263273 20.73631636 -5.21193013 20.60190402 -9 20 C-11.75569447 17.81840855 -13.43588747 16.12822506 -15 13 C-15.39447548 8.81855989 -15.45035186 6.69053952 -13.125 3.125 C-9.24588009 -0.75411991 -5.27012467 -0.68265864 0 0 Z " fill="#F8C001" transform="translate(461,147)"/>
<path d="M0 0 C3.49406769 1.66762322 4.82670681 2.74006022 7 6 C7.73446576 10.56051995 7.59262059 14.01911074 5.1875 18 C2.33756556 20.60565434 0.45051314 20.95828582 -3.375 21.3125 C-7.59334314 20.94884973 -9.04884992 19.95115008 -12 17 C-13.73631636 13.52736727 -13.60190402 9.78806987 -13 6 C-9.04831125 1.00839315 -6.3017294 -0.49425329 0 0 Z " fill="#F8C001" transform="translate(392,362)"/>
<path d="M0 0 C3.49406769 1.66762322 4.82670681 2.74006022 7 6 C7.73965025 10.59271203 7.60961194 14.02462089 5.125 18 C1.85159987 21.08084718 -0.46126475 21.33387487 -4.9609375 21.29296875 C-8.13134567 20.83745033 -9.8192402 19.24684343 -12 17 C-13.73631636 13.52736727 -13.60190402 9.78806987 -13 6 C-9.04831125 1.00839315 -6.3017294 -0.49425329 0 0 Z " fill="#31C2C5" transform="translate(385,457)"/>
<path d="M0 0 C3.1293173 0.74342897 4.94179824 2.18840477 7.12109375 4.50390625 C8.72196002 7.70563879 8.62026464 11.02967684 8.12109375 14.50390625 C6.32745464 17.31394085 5.1022844 19.01331093 2.12109375 20.50390625 C-0.98871276 21.0512322 -3.77825794 21.13753957 -6.87890625 20.50390625 C-10.60530991 17.88862093 -12.53290163 14.88792472 -13.62890625 10.50390625 C-11.81301239 3.24033082 -7.5625926 -0.59939604 0 0 Z " fill="#31C2C5" transform="translate(467.87890625,248.49609375)"/>
<path d="M0 0 C2.8100346 1.79363911 4.50940468 3.01880935 6 6 C6.64233846 10.6707182 6.62020335 13.9870012 4.125 18.0625 C-0.28025942 20.79376084 -3.94922834 21.00187438 -9 20 C-12.125 18.0625 -12.125 18.0625 -14 15 C-14.93971476 10.31835797 -14.66873692 7.06997908 -12.125 3 C-8.46188547 -0.44763721 -4.88098361 -0.70129075 0 0 Z " fill="#32C4C7" transform="translate(453,417)"/>
</svg>
